<svg xmlns="http://www.w3.org/2000/svg" viewBox="0 0 220 28.44">
  <path d="M97.39 15.37c0-6.79-3-14.09-10.88-14.09-4.26 0-9.86 2.94-9.86 11.94 0 6.1 3 14 11.1 14 4.91 0 9.64-3.71 9.64-11.83m-24.87-.87A14.23 14.23 0 0 1 87.2 0c9.54 0 14.31 6.88 14.31 14.08A14.05 14.05 0 0 1 87.2 28.44c-9.17 0-14.68-6.51-14.68-13.94M139.27 27.89V3.21c0-1.28 0-1.33-1.24-1.33h-8.94V.69h23.94v1.24h-8.94c-1.24 0-1.24 0-1.24 1.33 0 0 .05 23.62.05 24.68h-3.67zM219.77 26.74a4.56 4.56 0 0 1-2.43-1.1c-2.8-2.34-5-5.59-8.26-10.87-.18-.32-.41-.73-.18-1 2.06-.83 4.95-2.76 4.95-6.65a6.1 6.1 0 0 0-3.39-5.74 14.69 14.69 0 0 0-6.84-1.16h-8.8V15.6c0 6.19-2.25 10.82-8.17 10.82-6.24 0-8.26-4.31-8.26-10.87V.41h-3.34v16c0 4.81 1 7.79 3.16 9.58s4.79 2.23 7.62 2.23a10.66 10.66 0 0 0 7.79-3c2.3-2.43 2.85-6.19 2.85-9.73v-4.57c0-2.3 0-7.07.55-8.44.23-.55 1-.87 2-1h4.4C208 1.47 210 4.54 210 7.75c0 2.8-.73 4-1.88 4.86a6.1 6.1 0 0 1-3.57 1.06H201l1.2 1.74h3.07l1.1 1.7c1.15 1.79 2.52 4 3.39 5.28 2.94 4.12 5 5.13 8.49 5.13a8.06 8.06 0 0 0 1.79-.18l-.23-.6zM36.83.37h-3.34s-7.85 20.46-10 26a4.1 4.1 0 0 1-1.1-.69c-2.8-2.34-5-5.59-8.26-10.87-.19-.32-.41-.73-.19-1 2-.87 4.87-2.8 4.87-6.7a6.09 6.09 0 0 0-3.4-5.73A14.67 14.67 0 0 0 8.58.14H0l.05.08.82 1.2h7.71c4.54 0 6.51 3.07 6.51 6.28 0 2.8-.73 4-1.88 4.86a6.11 6.11 0 0 1-3.58 1.06H6.15l1.19 1.7h3.07l1.1 1.7c1.15 1.79 2.53 4 3.4 5.27 2.93 4.13 5 5.14 8.48 5.14h1.75l4.49-12.11h7.11c1.1 0 1.43.09 1.65.69l3.81 11.56h4C46 26.93 36.83.37 36.83.37zm-.64 13.3h-5.91l3.85-10.45 3.16 9.49c.19.82 0 .96-1.1.96zM164.59 26.51c-3.21 0-4.09-.46-4.54-.91-.65-.69-.78-2.11-.78-4.27v-6.51h9.49v-1.43h-9.49V3.58c0-1.56 0-1.65 1.23-1.65h10.37V.73h-15v27.21h16.51v-1.38zM126.7.37h-2.16v20.68C122.66 19.08 106 .37 106 .37h-1.79v27.11h2.16V5.55l19.55 22.57h.78zM70.83 23.85a11.29 11.29 0 0 1-6.06 3.12.3.3 0 0 0-.18.05 11.11 11.11 0 0 1-1.79.14c-6.74 0-12.25-4.77-12.25-13.4 0-8.48 5.37-12.48 11.65-12.48 4.63 0 6.56 1.15 7.66 1.79a6.76 6.76 0 0 0 1 .6V1.15a3.49 3.49 0 0 1-.82-.19 34.55 34.55 0 0 0-7.3-1 17.92 17.92 0 0 0-11.13 3.53 13.67 13.67 0 0 0-5.19 10.87 13.17 13.17 0 0 0 5.87 11.28 18.12 18.12 0 0 0 10.28 2.75 26.48 26.48 0 0 0 8-1.37c.28-.09.37-.09.37-.6v-2.66l-.09.09"/>
</svg>