<svg xmlns="http://www.w3.org/2000/svg" xmlns:xlink="http://www.w3.org/1999/xlink" width="31" height="31">
  <defs>
    <path id="a" d="M0 .0005h30.726v30.726H0z"/>
  </defs>
  <g fill="none" fill-rule="evenodd">
    <mask id="b" fill="#fff">
      <use xlink:href="#a"/>
    </mask>
    <path fill="#FEFEFE" d="M24.7777 15.8159l-8.962 8.962c-.125.125-.289.187-.452.187-.164 0-.328-.062-.453-.187l-8.962-8.962c-.25-.25-.25-.655 0-.905s.655-.25.905 0l8.51 8.509 8.509-8.509c.25-.25.655-.25.905 0s.25.655 0 .905m0-6.401l-8.962 8.962c-.125.125-.289.187-.452.187-.164 0-.328-.062-.453-.187l-8.962-8.962c-.25-.25-.25-.655 0-.905.25-.251.655-.251.905 0l8.51 8.509 8.509-8.509c.25-.251.655-.251.905 0 .25.25.25.655 0 .905m-9.414-9.415c-8.485 0-15.364 6.878-15.364 15.363s6.879 15.364 15.364 15.364c8.484 0 15.363-6.879 15.363-15.364 0-8.485-6.879-15.363-15.363-15.363" mask="url(#b)"/>
  </g>
</svg>